# xmcd
#
# Track frame offsets:
#	150
#	18807
#	43197
#	59660
#	77050
#	92155
#	111347
#	120285
#	140187
#	155920
#	169927
#	181937
#	196890
#	217880
#	232342
#	253452
#	273600
#	287775
#	312870
#
# Disc length: 4440 seconds
#
# Revision: 1
# Processed by: cddbd v1.5.2PL0 Copyright (c) Steve Scherf et al.
# Submitted via: EasyCDDAExtractor 11.0.3.1
#
DISCID=26115613
DTITLE=Various Artist - The Winners 2004 [CD2)
DYEAR=2004
DGENRE=Country-Aust
TTITLE0=John Williamson - True Blue 21st Anniversary
TTITLE1=Melinda Schneider - Cootamundra Wattle 
TTITLE2=Michael Bryers - Fall Like Rain
TTITLE3=Darren Coffan - If I Had My Time Again
TTITLE4=Dianna Corcoran - I'll Fly Away
TTITLE5=Arthur Blanch - Australia's Robin Hood
TTITLE6=Michael Fix - Two Left Feet
TTITLE7=Lee Kernaghan - Diamantina Drover
TTITLE8=Tom Maxwell - Gidgee After Rain
TTITLE9=Jake Nickolai - Home Run
TTITLE10=Laurel Edwards - C'mon Down
TTITLE11=Carter and Carter with Darren Coggan - Busy Man
TTITLE12=Graeme Connors - The Simple Truth
TTITLE13=Adam Harvey and Gina Jeffreys - The Kokoda Anthem (Battle for Australia
TTITLE13=)
TTITLE14=Davidson Brothers - Orange Blossom Special
TTITLE15=Brendon Walmsley - Now I'm Easy
TTITLE16=Sara Storer and John Williamson - Raining On The Plains
TTITLE17=Sovereign - Tooraweenah Cowgirl
TTITLE18=DATA
EXTD=
EXTT0=
EXTT1=
EXTT2=
EXTT3=
EXTT4=
EXTT5=
EXTT6=
EXTT7=
EXTT8=
EXTT9=
EXTT10=
EXTT11=
EXTT12=
EXTT13=
EXTT14=
EXTT15=
EXTT16=
EXTT17=
EXTT18=
PLAYORDER=
